<svg xmlns="http://www.w3.org/2000/svg" xmlns:xlink="http://www.w3.org/1999/xlink" width="378" zoomAndPan="magnify" viewBox="0 0 282.96 283.499989" height="378" preserveAspectRatio="xMidYMid meet" version="1.0"><defs><clipPath id="51c68e4f0e"><path d="M 28.527344 68.617188 L 254.625 68.617188 L 254.625 214.613281 L 28.527344 214.613281 Z M 28.527344 68.617188 " clip-rule="nonzero"/></clipPath></defs><g clip-path="url(#51c68e4f0e)"><path fill="#ffffff" d="M 132.089844 202.667969 C 132.089844 202.796875 132.089844 202.796875 132.089844 202.796875 C 132.089844 202.925781 132.089844 203.054688 132.21875 203.054688 C 153.898438 202.925781 170.058594 202.925781 180.835938 203.054688 C 197.382812 203.054688 211.621094 197.792969 223.421875 187.019531 C 233.941406 177.527344 240.871094 164.441406 242.921875 150.71875 C 248.308594 113.132812 219.703125 80.035156 181.734375 80.035156 C 140.042969 80.164062 114.644531 80.164062 105.535156 80.164062 C 105.410156 80.164062 105.28125 80.035156 105.28125 79.777344 C 105.28125 79.777344 105.28125 79.652344 105.28125 79.652344 L 111.179688 69.390625 C 111.4375 69.003906 111.820312 68.746094 112.335938 68.746094 C 153.769531 68.746094 176.988281 68.746094 182.117188 68.746094 C 217.652344 68.617188 247.667969 94.273438 253.824219 128.910156 C 254.339844 131.476562 254.59375 134.808594 254.59375 138.914062 C 254.722656 144.046875 254.722656 147.382812 254.59375 148.921875 C 251.261719 182.785156 224.449219 209.851562 190.839844 213.828125 C 188.277344 214.214844 184.300781 214.34375 179.039062 214.34375 C 167.878906 214.214844 145.816406 214.214844 113.105469 214.34375 C 112.589844 214.34375 112.464844 214.085938 112.71875 213.699219 L 171.214844 111.847656 C 171.34375 111.59375 171.726562 111.335938 172.113281 111.335938 L 184.300781 111.335938 C 184.300781 111.335938 184.425781 111.464844 184.425781 111.59375 Z M 99.507812 148.40625 C 99.636719 148.40625 99.765625 148.40625 99.765625 148.28125 L 133.117188 90.554688 C 133.371094 90.167969 133.628906 90.042969 133.886719 90.042969 L 146.070312 90.042969 C 146.199219 90.042969 146.328125 90.167969 146.328125 90.296875 C 146.328125 90.425781 146.328125 90.425781 146.199219 90.425781 L 99.765625 170.855469 C 99.765625 170.984375 99.636719 171.113281 99.507812 171.113281 C 99.378906 171.113281 99.25 170.984375 99.25 170.855469 L 52.8125 90.554688 C 52.8125 90.425781 52.6875 90.425781 52.6875 90.425781 C 52.6875 90.167969 52.8125 90.042969 53.070312 90.042969 L 126.957031 90.042969 C 127.34375 90.042969 127.472656 90.167969 127.214844 90.554688 L 121.1875 100.945312 C 121.058594 101.328125 120.800781 101.457031 120.417969 101.457031 L 72.824219 101.457031 C 72.570312 101.457031 72.441406 101.585938 72.441406 101.714844 C 72.441406 101.84375 72.441406 101.84375 72.441406 101.972656 C 90.015625 132.375 98.867188 147.765625 98.996094 148.023438 C 99.121094 148.152344 99.378906 148.40625 99.507812 148.40625 Z M 99.507812 190.996094 C 99.636719 191.125 99.636719 190.996094 99.765625 190.996094 L 157.359375 90.554688 C 157.488281 90.296875 157.875 90.042969 158.128906 90.042969 C 168.519531 90.042969 177.117188 90.042969 184.171875 90.167969 C 191.226562 90.296875 198.152344 91.964844 204.824219 95.300781 C 226.886719 106.203125 238.304688 130.960938 231.890625 154.820312 C 228.8125 166.109375 222.652344 175.347656 213.289062 182.53125 C 205.59375 188.558594 196.484375 191.894531 186.09375 192.921875 C 184.941406 193.046875 181.09375 193.046875 174.292969 193.046875 C 164.542969 193.046875 156.335938 193.046875 149.535156 193.046875 C 149.40625 193.046875 149.277344 192.921875 149.277344 192.792969 C 149.277344 192.664062 149.277344 192.664062 149.277344 192.664062 L 155.308594 182.273438 C 155.4375 181.886719 155.820312 181.632812 156.207031 181.632812 C 159.414062 181.632812 166.597656 181.632812 178.011719 181.632812 C 183.53125 181.632812 187.378906 181.375 189.816406 180.992188 C 205.078125 177.910156 217.136719 166.625 220.988281 151.742188 C 224.066406 139.941406 221.757812 127.5 214.445312 117.75 C 208.285156 109.410156 200.078125 104.28125 189.816406 102.097656 C 187.378906 101.585938 183.53125 101.328125 178.398438 101.457031 C 174.292969 101.457031 169.804688 101.457031 164.800781 101.457031 C 164.414062 101.457031 164.03125 101.585938 163.773438 101.972656 L 99.890625 213.445312 C 99.636719 213.957031 99.25 213.957031 98.996094 213.445312 L 28.699219 90.425781 C 28.699219 90.425781 28.699219 90.425781 28.699219 90.296875 C 28.699219 90.167969 28.828125 90.042969 28.953125 90.042969 L 40.882812 90.042969 C 41.398438 90.042969 41.652344 90.296875 41.910156 90.683594 C 79.625 156.746094 98.738281 190.097656 99.121094 190.738281 C 99.25 190.867188 99.378906 190.996094 99.507812 190.996094 Z M 99.507812 190.996094 " fill-opacity="1" fill-rule="evenodd"/></g></svg>