<svg xmlns="http://www.w3.org/2000/svg" xmlns:xlink="http://www.w3.org/1999/xlink" width="378" zoomAndPan="magnify" viewBox="0 0 283.5 283.500005" height="378" preserveAspectRatio="xMidYMid meet" version="1.0"><defs><clipPath id="52f3a4f34b"><path d="M 28.300781 68.628906 L 254.429688 68.628906 L 254.429688 214.636719 L 28.300781 214.636719 Z M 28.300781 68.628906 " clip-rule="nonzero"/></clipPath></defs><g clip-path="url(#52f3a4f34b)"><path fill="#000000" d="M 131.878906 202.695312 C 131.878906 202.824219 131.878906 202.824219 131.878906 202.824219 C 131.878906 202.953125 131.878906 203.078125 132.003906 203.078125 C 153.6875 202.953125 169.851562 202.953125 180.628906 203.078125 C 197.179688 203.078125 211.417969 197.820312 223.222656 187.042969 C 233.742188 177.550781 240.671875 164.464844 242.722656 150.734375 C 248.113281 113.144531 219.503906 80.046875 181.527344 80.046875 C 139.832031 80.175781 114.429688 80.175781 105.320312 80.175781 C 105.191406 80.175781 105.0625 80.046875 105.0625 79.789062 C 105.0625 79.789062 105.0625 79.660156 105.0625 79.660156 L 110.964844 69.398438 C 111.222656 69.011719 111.605469 68.757812 112.121094 68.757812 C 153.558594 68.757812 176.78125 68.757812 181.910156 68.757812 C 217.449219 68.628906 247.46875 94.285156 253.628906 128.925781 C 254.140625 131.492188 254.398438 134.828125 254.398438 138.933594 C 254.527344 144.0625 254.527344 147.398438 254.398438 148.941406 C 251.0625 182.808594 224.25 209.878906 190.636719 213.855469 C 188.070312 214.242188 184.09375 214.371094 178.832031 214.371094 C 167.671875 214.242188 145.605469 214.242188 112.890625 214.371094 C 112.375 214.371094 112.25 214.113281 112.503906 213.726562 L 171.007812 111.863281 C 171.136719 111.605469 171.519531 111.347656 171.90625 111.347656 L 184.09375 111.347656 C 184.09375 111.347656 184.222656 111.476562 184.222656 111.605469 Z M 99.289062 148.425781 C 99.417969 148.425781 99.546875 148.425781 99.546875 148.296875 L 132.902344 90.566406 C 133.160156 90.179688 133.417969 90.054688 133.671875 90.054688 L 145.863281 90.054688 C 145.988281 90.054688 146.117188 90.179688 146.117188 90.308594 C 146.117188 90.4375 146.117188 90.4375 145.988281 90.4375 L 99.546875 170.878906 C 99.546875 171.007812 99.417969 171.132812 99.289062 171.132812 C 99.164062 171.132812 99.035156 171.007812 99.035156 170.878906 L 52.59375 90.566406 C 52.59375 90.4375 52.464844 90.4375 52.464844 90.4375 C 52.464844 90.179688 52.59375 90.054688 52.847656 90.054688 L 126.746094 90.054688 C 127.128906 90.054688 127.257812 90.179688 127.003906 90.566406 L 120.972656 100.957031 C 120.84375 101.34375 120.585938 101.472656 120.203125 101.472656 L 72.605469 101.472656 C 72.347656 101.472656 72.222656 101.597656 72.222656 101.726562 C 72.222656 101.855469 72.222656 101.855469 72.222656 101.984375 C 89.796875 132.390625 98.648438 147.785156 98.777344 148.042969 C 98.90625 148.167969 99.164062 148.425781 99.289062 148.425781 Z M 99.289062 191.019531 C 99.417969 191.148438 99.417969 191.019531 99.546875 191.019531 L 157.152344 90.566406 C 157.28125 90.308594 157.664062 90.054688 157.921875 90.054688 C 168.3125 90.054688 176.910156 90.054688 183.964844 90.179688 C 191.019531 90.308594 197.949219 91.976562 204.621094 95.3125 C 226.6875 106.21875 238.105469 130.976562 231.691406 154.839844 C 228.609375 166.132812 222.453125 175.367188 213.085938 182.550781 C 205.390625 188.582031 196.28125 191.917969 185.890625 192.945312 C 184.734375 193.074219 180.886719 193.074219 174.085938 193.074219 C 164.335938 193.074219 156.125 193.074219 149.324219 193.074219 C 149.195312 193.074219 149.070312 192.945312 149.070312 192.816406 C 149.070312 192.6875 149.070312 192.6875 149.070312 192.6875 L 155.097656 182.296875 C 155.226562 181.910156 155.613281 181.65625 155.996094 181.65625 C 159.203125 181.65625 166.386719 181.65625 177.804688 181.65625 C 183.324219 181.65625 187.171875 181.398438 189.609375 181.011719 C 204.875 177.933594 216.9375 166.644531 220.785156 151.761719 C 223.863281 139.960938 221.554688 127.515625 214.242188 117.765625 C 208.082031 109.425781 199.871094 104.292969 189.609375 102.113281 C 187.171875 101.597656 183.324219 101.34375 178.191406 101.472656 C 174.085938 101.472656 169.59375 101.472656 164.59375 101.472656 C 164.207031 101.472656 163.824219 101.597656 163.566406 101.984375 L 99.675781 213.472656 C 99.417969 213.984375 99.035156 213.984375 98.777344 213.472656 L 28.472656 90.4375 C 28.472656 90.4375 28.472656 90.4375 28.472656 90.308594 C 28.472656 90.179688 28.601562 90.054688 28.730469 90.054688 L 40.660156 90.054688 C 41.171875 90.054688 41.429688 90.308594 41.6875 90.695312 C 79.40625 156.765625 98.519531 190.121094 98.90625 190.761719 C 99.035156 190.890625 99.164062 191.019531 99.289062 191.019531 Z M 99.289062 191.019531 " fill-opacity="1" fill-rule="evenodd"/></g></svg>